<svg width="71" height="89" viewBox="0 0 71 89" fill="none" xmlns="http://www.w3.org/2000/svg">
<path d="M67.8262 88.3949C68.6544 88.4175 69.344 87.7645 69.3665 86.9363C69.3891 86.1082 68.7361 85.4186 67.908 85.396L67.8262 88.3949ZM49.0168 84.6183L48.4086 85.9895L49.0168 84.6183ZM36.6764 72.9043L37.932 72.0836L36.6764 72.9043ZM42.4413 34.6799L43.1121 36.0215L42.4413 34.6799ZM62.9601 34.4628L63.9293 33.318L62.9601 34.4628ZM68.5628 43.0837L70.0568 43.2182L68.5628 43.0837ZM59.4546 47.6316L59.3715 46.1339L59.4546 47.6316ZM29.3975 37.9631L28.538 39.1925L29.3975 37.9631ZM7.99574 13.191L6.66188 13.8772L7.99574 13.191ZM3.61772 0.711464L0.204362 17.6923L16.6169 12.1579L3.61772 0.711464ZM65.4959 85.3526C64.6675 85.3426 63.9879 86.006 63.9778 86.8344C63.9678 87.6627 64.6312 88.3424 65.4595 88.3524L65.4959 85.3526ZM60.6453 88.2641C61.4732 88.2935 62.1681 87.6461 62.1975 86.8182C62.2269 85.9903 61.5795 85.2953 60.7516 85.266L60.6453 88.2641ZM56.1207 84.921C55.2987 84.8175 54.5485 85.3998 54.445 86.2218C54.3414 87.0437 54.9238 87.7939 55.7457 87.8975L56.1207 84.921ZM50.8196 86.8823C51.6121 87.1237 52.4502 86.677 52.6917 85.8845C52.9331 85.0921 52.4864 84.2539 51.6939 84.0125L50.8196 86.8823ZM46.2285 81.2097C45.5649 80.7138 44.6249 80.8497 44.129 81.5134C43.6331 82.177 43.7691 83.1169 44.4327 83.6128L46.2285 81.2097ZM38.0456 77.3243C38.5664 77.9685 39.5109 78.0686 40.1551 77.5478C40.7994 77.027 40.8995 76.0825 40.3787 75.4383L38.0456 77.3243ZM36.6077 69.8526C36.2151 69.1231 35.3055 68.8499 34.576 69.2425C33.8465 69.635 33.5733 70.5446 33.9659 71.2742L36.6077 69.8526ZM31.6814 66.0772C31.9549 66.8592 32.8105 67.2715 33.5925 66.998C34.3745 66.7246 34.7868 65.869 34.5133 65.087L31.6814 66.0772ZM33.1762 60.0519C33.0264 59.2371 32.2445 58.698 31.4297 58.8478C30.615 58.9975 30.0759 59.7795 30.2256 60.5942L33.1762 60.0519ZM29.6595 54.9307C29.6713 55.7591 30.3523 56.4211 31.1806 56.4094C32.009 56.3976 32.671 55.7166 32.6592 54.8883L29.6595 54.9307ZM33.074 49.7607C33.2239 48.9459 32.685 48.1639 31.8702 48.014C31.0555 47.8641 30.2735 48.403 30.1236 49.2178L33.074 49.7607ZM31.8191 43.6822C31.4816 44.4388 31.8215 45.3256 32.5781 45.663C33.3347 46.0004 34.2215 45.6606 34.559 44.904L31.8191 43.6822ZM37.2023 40.6415C37.7333 40.0056 37.6483 39.0597 37.0124 38.5287C36.3766 37.9977 35.4306 38.0827 34.8996 38.7186L37.2023 40.6415ZM39.2491 34.8064C38.562 35.2693 38.3802 36.2015 38.843 36.8885C39.3058 37.5756 40.238 37.7574 40.9251 37.2946L39.2491 34.8064ZM45.4714 34.9612C46.2404 34.653 46.614 33.7798 46.3058 33.0108C45.9977 32.2419 45.1245 31.8683 44.3555 32.1764L45.4714 34.9612ZM49.8066 30.536C48.9941 30.6974 48.4663 31.487 48.6277 32.2995C48.7891 33.1121 49.5787 33.6399 50.3912 33.4785L49.8066 30.536ZM55.3907 33.1055C56.2173 33.1614 56.9326 32.5366 56.9884 31.71C57.0443 30.8835 56.4195 30.1682 55.5929 30.1123L55.3907 33.1055ZM61.3793 31.6305C60.6396 31.2574 59.7375 31.5547 59.3645 32.2944C58.9915 33.0341 59.2888 33.9361 60.0285 34.3091L61.3793 31.6305ZM63.9584 37.32C64.5657 37.8835 65.5148 37.8481 66.0783 37.2408C66.6418 36.6336 66.6063 35.6845 65.999 35.121L63.9584 37.32ZM69.575 39.9175C69.2761 39.1448 68.4074 38.7608 67.6348 39.0597C66.8622 39.3586 66.4781 40.2272 66.777 40.9998L69.575 39.9175ZM66.3391 44.3825C65.7236 44.9369 65.674 45.8853 66.2284 46.5009C66.7828 47.1165 67.7313 47.166 68.3468 46.6116L66.3391 44.3825ZM62.416 48.8758C63.2369 48.7643 63.8119 48.0084 63.7004 47.1875C63.5889 46.3666 62.833 45.7916 62.0121 45.9031L62.416 48.8758ZM56.7776 46.1996C55.9492 46.1951 55.274 46.863 55.2695 47.6914C55.265 48.5199 55.933 49.195 56.7614 49.1995L56.7776 46.1996ZM51.2152 48.8127C52.0361 48.9243 52.792 48.3493 52.9036 47.5285C53.0152 46.7076 52.4403 45.9517 51.6194 45.84L51.2152 48.8127ZM46.5563 44.8059C45.7572 44.5872 44.9322 45.0577 44.7135 45.8567C44.4948 46.6557 44.9652 47.4808 45.7643 47.6995L46.5563 44.8059ZM40.5133 45.9031C41.2796 46.2179 42.1559 45.8518 42.4706 45.0854C42.7854 44.3191 42.4192 43.4428 41.6529 43.1281L40.5133 45.9031ZM36.9465 40.8915C36.2171 40.4988 35.3074 40.7716 34.9146 41.501C34.5218 42.2304 34.7947 43.1401 35.5241 43.5329L36.9465 40.8915ZM30.8056 40.7232C31.5 41.1749 32.4292 40.9781 32.8809 40.2836C33.3325 39.5891 33.1357 38.66 32.4413 38.2083L30.8056 40.7232ZM28.0823 35.1451C27.4237 34.6426 26.4824 34.7691 25.9799 35.4277C25.4774 36.0863 25.6039 37.0276 26.2625 37.5301L28.0823 35.1451ZM21.93 33.9268C22.5441 34.4829 23.4927 34.4358 24.0488 33.8217C24.6048 33.2076 24.5577 32.259 23.9436 31.703L21.93 33.9268ZM20.1079 27.9253C19.5425 27.3198 18.5933 27.2873 17.9878 27.8527C17.3824 28.4181 17.3499 29.3673 17.9153 29.9728L20.1079 27.9253ZM14.2443 25.7005C14.758 26.3505 15.7013 26.4609 16.3513 25.9473C17.0012 25.4336 17.1117 24.4903 16.598 23.8404L14.2443 25.7005ZM13.429 19.4809C12.9689 18.792 12.0374 18.6066 11.3485 19.0667C10.6596 19.5268 10.4741 20.4582 10.9342 21.1471L13.429 19.4809ZM7.99355 16.3527C8.39949 17.0749 9.31398 17.3312 10.0361 16.9253C10.7583 16.5193 11.0146 15.6048 10.6087 14.8827L7.99355 16.3527ZM8.06738 9.63428C7.77591 8.85883 6.91099 8.46648 6.13554 8.75795C5.36008 9.04942 4.96773 9.91434 5.2592 10.6898L8.06738 9.63428ZM3.24049 4.28516C3.48193 5.07761 4.32008 5.5243 5.11254 5.28286C5.905 5.04141 6.35169 4.20326 6.11024 3.4108L3.24049 4.28516ZM67.908 85.396C67.1149 85.3744 66.3075 85.3625 65.4959 85.3526L65.4595 88.3524C66.2676 88.3622 67.0566 88.3739 67.8262 88.3949L67.908 85.396ZM60.7516 85.266C59.1831 85.2103 57.631 85.1113 56.1207 84.921L55.7457 87.8975C57.3764 88.1029 59.0251 88.2066 60.6453 88.2641L60.7516 85.266ZM51.6939 84.0125C50.9799 83.7949 50.2891 83.5417 49.6249 83.2471L48.4086 85.9895C49.1949 86.3382 50.0009 86.6328 50.8196 86.8823L51.6939 84.0125ZM49.6249 83.2471C48.4966 82.7466 47.3557 82.052 46.2285 81.2097L44.4327 83.6128C45.6976 84.558 47.0319 85.3789 48.4086 85.9895L49.6249 83.2471ZM40.3787 75.4383C39.4654 74.3086 38.641 73.1685 37.932 72.0836L35.4208 73.7249C36.1845 74.8934 37.0683 76.1153 38.0456 77.3243L40.3787 75.4383ZM37.932 72.0836C37.4646 71.3685 37.0224 70.6232 36.6077 69.8526L33.9659 71.2742C34.4198 72.1177 34.9054 72.9364 35.4208 73.7249L37.932 72.0836ZM34.5133 65.087C33.941 63.4503 33.4902 61.7601 33.1762 60.0519L30.2256 60.5942C30.5682 62.4575 31.0591 64.2974 31.6814 66.0772L34.5133 65.087ZM32.6592 54.8883C32.6345 53.1424 32.7685 51.4212 33.074 49.7607L30.1236 49.2178C29.7797 51.0866 29.6323 53.0048 29.6595 54.9307L32.6592 54.8883ZM34.559 44.904C35.2422 43.3718 36.1183 41.9396 37.2023 40.6415L34.8996 38.7186C33.6278 40.2415 32.6082 41.9125 31.8191 43.6822L34.559 44.904ZM40.9251 37.2946C41.6047 36.8368 42.333 36.4111 43.1121 36.0215L41.7705 33.3383C40.878 33.7845 40.0379 34.2751 39.2491 34.8064L40.9251 37.2946ZM43.1121 36.0215C43.8609 35.6472 44.6514 35.2898 45.4714 34.9612L44.3555 32.1764C43.4568 32.5366 42.5911 32.928 41.7705 33.3383L43.1121 36.0215ZM50.3912 33.4785C52.0845 33.1421 53.7762 32.9964 55.3907 33.1055L55.5929 30.1123C53.6652 29.9821 51.7047 30.1589 49.8066 30.536L50.3912 33.4785ZM60.0285 34.3091C60.7186 34.6571 61.3753 35.0865 61.9909 35.6076L63.9293 33.318C63.1288 32.6403 62.274 32.0816 61.3793 31.6305L60.0285 34.3091ZM61.9909 35.6076C62.6425 36.1593 63.3102 36.7185 63.9584 37.32L65.999 35.121C65.2892 34.4623 64.5609 33.8527 63.9293 33.318L61.9909 35.6076ZM66.777 40.9998C67.0214 41.6316 67.1297 42.2741 67.0689 42.9491L70.0568 43.2182C70.1638 42.0301 69.9649 40.9255 69.575 39.9175L66.777 40.9998ZM67.0689 42.9491C67.0143 43.5546 66.7619 44.0017 66.3391 44.3825L68.3468 46.6116C69.272 45.7784 69.9275 44.6539 70.0568 43.2182L67.0689 42.9491ZM62.0121 45.9031C61.0598 46.0325 60.1404 46.0912 59.3715 46.1339L59.5377 49.1292C60.32 49.0858 61.3389 49.0221 62.416 48.8758L62.0121 45.9031ZM59.3715 46.1339C58.4933 46.1826 57.629 46.2041 56.7776 46.1996L56.7614 49.1995C57.6745 49.2044 58.5996 49.1813 59.5377 49.1292L59.3715 46.1339ZM51.6194 45.84C49.8899 45.6049 48.2057 45.2574 46.5563 44.8059L45.7643 47.6995C47.5379 48.1849 49.3516 48.5593 51.2152 48.8127L51.6194 45.84ZM41.6529 43.1281C40.0658 42.4763 38.5004 41.7283 36.9465 40.8915L35.5241 43.5329C37.1615 44.4147 38.8213 45.2083 40.5133 45.9031L41.6529 43.1281ZM32.4413 38.2083C31.7129 37.7346 30.9852 37.2428 30.2569 36.7337L28.538 39.1925C29.2919 39.7195 30.0474 40.2301 30.8056 40.7232L32.4413 38.2083ZM30.2569 36.7337C29.5183 36.2174 28.7935 35.6878 28.0823 35.1451L26.2625 37.5301C27.0068 38.0981 27.7653 38.6523 28.538 39.1925L30.2569 36.7337ZM23.9436 31.703C22.6092 30.4948 21.3307 29.2347 20.1079 27.9253L17.9153 29.9728C19.1949 31.3431 20.5331 32.662 21.93 33.9268L23.9436 31.703ZM16.598 23.8404C15.4864 22.4338 14.4301 20.9799 13.429 19.4809L10.9342 21.1471C11.9791 22.7115 13.0824 24.2302 14.2443 25.7005L16.598 23.8404ZM10.6087 14.8827C10.169 14.1004 9.7426 13.3077 9.32961 12.5049L6.66188 13.8772C7.09162 14.7126 7.5355 15.5379 7.99355 16.3527L10.6087 14.8827ZM9.32961 12.5049C8.83791 11.549 8.4284 10.5948 8.06738 9.63428L5.2592 10.6898C5.65313 11.7378 6.10809 12.8006 6.66188 13.8772L9.32961 12.5049Z" fill="#342E37"/>
</svg>
